<svg id="Capa_1" enable-background="new 0 0 512 512" height="512" viewBox="0 0 512 512" width="512" xmlns="http://www.w3.org/2000/svg"><g><path d="m185.861 195c8.284 0 15-6.716 15-15v-32.861c5.827-.029 11.993-.055 15.628-.055 25.723 0 46.65-20.654 46.65-46.042s-20.927-46.042-46.65-46.042h-30.628c-3.986 0-7.809 1.587-10.624 4.41-2.803 2.812-4.374 6.62-4.374 10.59h-.002v110c0 8.284 6.716 15 15 15zm30.628-110c9.025 0 16.65 7.346 16.65 16.042s-7.625 16.042-16.65 16.042c-3.625 0-9.71.025-15.497.054-.029-6.01-.055-12.379-.055-16.096 0-3.185-.015-9.757-.032-16.042z"/><path d="m457 122h-125.038c-1.599-67.545-57.04-122-124.962-122s-123.363 54.455-124.962 122h-27.038c-30.327 0-55 24.673-55 55v280c0 30.327 24.673 55 55 55h402c30.327 0 55-24.673 55-55v-280c0-30.327-24.673-55-55-55zm-35 90v131.787l-78.787-78.787 53-53zm-235.787 210 135.787-135.787 52.287 52.287-83.5 83.5zm-96.213 0v-131.787l92.787 92.787-39 39zm305.5-62.287 26.5 26.5v35.787h-88.787zm-191.5 2.074-114-114v-35.787h27.366c13.619 13.958 30.442 24.696 48.831 31.07l27.211 58.276c2.465 5.28 7.765 8.654 13.591 8.654s11.126-3.374 13.591-8.654l27.211-58.276c18.389-6.374 35.213-17.112 48.832-31.07h57.153zm3-331.787c52.383 0 95 42.617 95 95 0 42.246-28.41 79.797-69.088 91.319-4.192 1.187-7.66 4.138-9.503 8.086l-16.409 35.141-16.409-35.141c-1.843-3.948-5.312-6.899-9.503-8.086-40.678-11.522-69.088-49.074-69.088-91.319 0-52.383 42.617-95 95-95zm275 427c0 13.785-11.215 25-25 25h-402c-13.785 0-25-11.215-25-25v-280c0-13.785 11.215-25 25-25h29.926c2.29 10.436 5.92 20.491 10.826 30h-20.752c-8.284 0-15 6.716-15 15v240c0 8.284 6.716 15 15 15h362c8.284 0 15-6.716 15-15v-240c0-8.284-6.716-15-15-15h-118.752c4.906-9.509 8.536-19.564 10.826-30h127.926c13.785 0 25 11.215 25 25z"/></g></svg>